<svg width="499" height="350" viewBox="0 0 499 350" fill="none" xmlns="http://www.w3.org/2000/svg">
<path d="M42.2668 268.329C31.1456 270.073 19.8874 272.433 9.91954 278.5C6.52856 281.545 0 288.86 0 293C0 302.999 2.74816 307.223 9.91954 315.232C14.4204 320.259 20.2783 326.697 26.201 330.112C46.3189 341.712 71.5064 343.999 94.1303 346.609C112.958 348.782 132.824 349.965 151.816 348.334C170.022 346.771 187.593 343.421 205.944 342.727C229.546 341.835 252.934 338.367 276.461 336.581C298.569 334.904 321.154 336.15 343.312 336.15C359.629 336.15 376.206 336.935 392.48 335.503C403.953 334.494 415.268 331.317 426.553 329.142C442.195 326.126 458.037 325.844 473.726 323.319C478.262 322.589 499.047 320.961 498.687 312.968C498.26 303.49 485.197 295.673 478.2 291.78C464.371 284.086 448.873 280.899 433.453 278.141C402.048 272.523 370.399 268.135 338.891 263.153C307.34 258.164 275.482 258.517 243.629 258.517C205.823 258.517 167.926 257.798 130.144 259.379C100.759 260.609 71.3215 263.771 42.2668 268.329Z" fill="#B2C0DF" fill-opacity="0.17"/>
<g clip-path="url(#clip0_110_488)">
<path d="M116.6 319.08H85.64C79.78 319.08 75.02 314.33 75.02 308.46V222.51C75.02 216.65 79.77 211.89 85.64 211.89H116.6C122.46 211.89 127.22 216.64 127.22 222.51V308.46C127.22 314.33 122.46 319.08 116.6 319.08Z" fill="#263238"/>
<path d="M378.82 319.08H411.84C417.7 319.08 422.46 314.33 422.46 308.46V222.51C422.46 216.65 417.71 211.89 411.84 211.89H378.82C372.96 211.89 368.2 216.64 368.2 222.51V308.46C368.21 314.33 372.96 319.08 378.82 319.08Z" fill="#263238"/>
<path d="M91.6801 155.89C90.7001 156.09 86.0001 161.34 82.2101 165.75C78.8801 169.62 77.0301 174.62 77.0101 179.81C76.9501 197.25 77.4001 235.6 78.5601 242.2C79.9801 250.31 87.4301 278.72 89.2101 280.19C90.9901 281.66 103.05 282.03 103.05 282.03C103.05 282.03 104.82 185.76 103.05 185.39C101.27 185.03 91.6801 155.89 91.6801 155.89Z" fill="#407BFF"/>
<path opacity="0.3" d="M91.6801 155.89C90.7001 156.09 86.0001 161.34 82.2101 165.75C78.8801 169.62 77.0301 174.62 77.0101 179.81C76.9501 197.25 77.4001 235.6 78.5601 242.2C79.9801 250.31 87.4301 278.72 89.2101 280.19C90.9901 281.66 103.05 282.03 103.05 282.03C103.05 282.03 104.82 185.76 103.05 185.39C101.27 185.03 91.6801 155.89 91.6801 155.89Z" fill="black"/>
<path d="M405.04 155.89C406.06 156.09 410.94 161.34 414.89 165.75C418.35 169.62 420.27 174.62 420.29 179.81C420.36 197.25 419.89 235.6 418.69 242.2C417.21 250.31 409.47 278.72 407.62 280.19C405.77 281.66 393.24 282.03 393.24 282.03C393.24 282.03 391.4 185.76 393.24 185.39C395.08 185.03 405.04 155.89 405.04 155.89Z" fill="#407BFF"/>
<path opacity="0.3" d="M405.04 155.89C406.06 156.09 410.94 161.34 414.89 165.75C418.35 169.62 420.27 174.62 420.29 179.81C420.36 197.25 419.89 235.6 418.69 242.2C417.21 250.31 409.47 278.72 407.62 280.19C405.77 281.66 393.24 282.03 393.24 282.03C393.24 282.03 391.4 185.76 393.24 185.39C395.08 185.03 405.04 155.89 405.04 155.89Z" fill="black"/>
<path d="M406.21 244.16C406.21 244.16 408.86 166.62 406.51 151.95C404.5 139.43 369.37 69.46 359.11 49.23C355.83 42.76 351.08 37.18 345.13 33.28C340.96 30.55 335.83 28.31 330.06 28.13C321.24 27.86 266.56 28.04 248.51 28.11C230.46 28.04 175.78 27.86 166.96 28.13C161.19 28.31 156.06 30.55 151.89 33.28C145.94 37.18 141.19 42.76 137.91 49.23C127.66 69.46 92.5199 139.43 90.5099 151.95C88.1599 166.62 90.8099 244.16 90.8099 244.16L86.6899 254.55L94.9199 284.5C94.9199 284.5 136.09 288.78 143.14 288.78C150.2 288.78 156.08 281.44 156.08 281.44L242.73 284.14V284.5L248.51 284.32L254.29 284.5V284.14L340.94 281.44C340.94 281.44 346.82 288.78 353.88 288.78C360.94 288.78 402.1 284.5 402.1 284.5L410.33 254.55L406.21 244.16Z" fill="#407BFF"/>
<path opacity="0.3" d="M395.18 224.45C342.69 237.61 269.41 239.59 248.51 239.89C227.61 239.59 154.33 237.61 101.84 224.45C101.84 224.45 95.6599 244.86 101.84 257.33C101.84 257.33 192.92 273.19 248.51 271.55C304.09 273.19 395.18 257.33 395.18 257.33C401.36 244.85 395.18 224.45 395.18 224.45Z" fill="black"/>
<path d="M133.48 119.45L143.44 96.35C145.48 91.63 149.99 88.6 154.96 88.6H341.41C346.22 88.6 350.6 91.44 352.73 95.91L363.53 118.66L133.48 119.45Z" fill="#263238"/>
<path opacity="0.5" d="M351.51 53.73C347.05 43.4 337.13 36.82 326.24 36.97H170.79C159.9 36.82 149.97 43.41 145.51 53.73L119.07 115.01L242.73 116.36C242.73 116.43 242.73 116.49 242.73 116.49L248.51 116.43L254.29 116.49C254.29 116.49 254.29 116.44 254.29 116.36L377.95 115.01L351.51 53.73Z" fill="white"/>
<path d="M108.98 150.4C108.98 150.4 97.1404 156.36 94.4304 163.76C91.7204 171.16 91.9604 184.75 94.4304 189.36C96.9004 193.97 113.26 198.65 128.71 200.38C133.6 200.93 154.43 202.51 156.58 200.38C157.47 199.49 159.29 184.74 154.36 178.34C149.43 171.93 108.98 150.4 108.98 150.4Z" fill="white"/>
<path d="M108.63 109.01C108.63 109.01 103.19 99.48 101.27 98.93C99.3502 98.38 80.5102 99.7 76.9602 100.11C75.7202 100.25 71.4202 102.04 72.0602 106.36C72.7002 110.68 73.6602 117.66 78.0302 119.77C82.4002 121.88 83.9402 121.32 90.3102 121.54C96.6802 121.76 105.96 121.21 106.7 120.43C107.45 119.65 107.55 118.55 107.55 118.55L110.53 120.66L113.83 113.57L108.63 109.01Z" fill="#407BFF"/>
<path d="M116.34 250.72C120.665 250.72 124.17 247.076 124.17 242.58C124.17 238.084 120.665 234.44 116.34 234.44C112.016 234.44 108.51 238.084 108.51 242.58C108.51 247.076 112.016 250.72 116.34 250.72Z" fill="#A24E3F"/>
<path d="M115.96 123.55C115.96 123.55 110.59 132.81 107.85 140.31C106.33 144.46 107.82 149.11 111.46 151.6C111.46 151.6 146.55 171.29 154.76 177.92" stroke="#263238" stroke-miterlimit="10"/>
<path d="M146.55 116.64C146.71 115.72 150.06 98.92 151.68 90.79C152.19 88.25 154.23 86.44 156.61 86.43C167.79 86.39 198.88 86.29 209.61 86.4C211.76 86.42 213.49 88.33 213.49 90.68L216.28 116.64H146.55Z" fill="#263238"/>
<path d="M196.34 81.98H172.61C167.71 81.98 163.74 78.01 163.74 73.11V63.6C163.74 58.7 167.71 54.73 172.61 54.73H196.34C201.24 54.73 205.21 58.7 205.21 63.6V73.11C205.21 78.01 201.24 81.98 196.34 81.98Z" fill="#263238"/>
<g opacity="0.2">
<path d="M146.55 116.64C146.71 115.72 150.06 98.92 151.68 90.79C152.19 88.25 154.23 86.44 156.61 86.43C167.79 86.39 198.88 86.29 209.61 86.4C211.76 86.42 213.49 88.33 213.49 90.68L216.28 116.64H146.55Z" fill="white"/>
<path d="M196.34 81.98H172.61C167.71 81.98 163.74 78.01 163.74 73.11V63.6C163.74 58.7 167.71 54.73 172.61 54.73H196.34C201.24 54.73 205.21 58.7 205.21 63.6V73.11C205.21 78.01 201.24 81.98 196.34 81.98Z" fill="white"/>
</g>
<path opacity="0.3" d="M111.3 121.25L107.56 118.54C107.44 119.1 107.2 120.13 106.27 120.64C105.4 121.11 103.88 121.08 102.82 121.18L101.41 124.26C101.41 124.26 104.26 123.18 106.33 122.2C108.4 121.22 108.23 120.06 108.23 120.06L111.3 121.25Z" fill="black"/>
<path opacity="0.3" d="M110.11 105.6L108.57 108.85C109.71 110.26 113.42 114.49 113.42 114.49L110.11 105.6Z" fill="black"/>
<path d="M387.16 150.4C387.16 150.4 399.46 156.36 402.28 163.76C405.1 171.16 404.84 184.75 402.28 189.36C399.72 193.97 382.71 198.65 366.65 200.38C361.57 200.93 339.91 202.51 337.68 200.38C336.75 199.49 334.86 184.74 339.99 178.34C345.12 171.93 387.16 150.4 387.16 150.4Z" fill="white"/>
<path d="M387.53 109.01C387.53 109.01 393.18 99.48 395.18 98.93C397.17 98.38 416.76 99.7 420.45 100.11C421.74 100.25 426.21 102.04 425.55 106.36C424.89 110.68 423.89 117.66 419.35 119.77C414.81 121.88 413.21 121.32 406.58 121.54C399.96 121.76 390.32 121.21 389.54 120.43C388.76 119.65 388.65 118.55 388.65 118.55L385.55 120.66L382.12 113.57L387.53 109.01Z" fill="#407BFF"/>
<path opacity="0.3" d="M251.17 185.85V185.8C251.17 185.8 248.99 185.84 245.27 185.85C241.55 185.84 239.37 185.8 239.37 185.8V185.85C218.01 185.77 173.42 184.75 154.76 177.93C154.76 177.93 159.75 194.88 163.91 199.68C168.07 204.48 172.78 207.87 183.59 209C192.54 209.94 218.9 210.93 239.38 211.56H239.39C243.64 211.69 247.64 211.47 251.17 211.57C271.96 211.33 297.97 209.94 306.96 209C317.77 207.87 322.48 204.48 326.64 199.68C330.8 194.88 335.79 177.93 335.79 177.93C317.12 184.74 272.53 185.77 251.17 185.85Z" fill="black"/>
<path d="M385.273 248.332C388.452 245.154 388.452 240 385.273 236.821C382.094 233.642 376.94 233.642 373.761 236.821C370.582 240 370.582 245.153 373.761 248.332C376.94 251.511 382.094 251.511 385.273 248.332Z" fill="#A24E3F"/>
<path d="M380.88 122.88C380.88 122.88 385.41 132.68 388.28 140.16C389.89 144.37 388.35 149.13 384.58 151.61C384.58 151.61 347.63 173.07 334.86 178.25" stroke="#263238" stroke-miterlimit="10"/>
<path d="M342.71 114.22C342.54 113.27 339.02 95.94 337.32 87.54C336.79 84.92 334.64 83.05 332.13 83.04C320.37 83 287.68 82.89 276.4 83.01C274.14 83.03 272.32 85 272.32 87.43L269.39 114.22H342.71Z" fill="#263238"/>
<path opacity="0.2" d="M342.71 114.22C342.54 113.27 339.02 95.94 337.32 87.54C336.79 84.92 334.64 83.05 332.13 83.04C320.37 83 287.68 82.89 276.4 83.01C274.14 83.03 272.32 85 272.32 87.43L269.39 114.22H342.71Z" fill="white"/>
<path d="M292.15 80.29H319.96C324.86 80.29 328.83 76.32 328.83 71.42V59.79C328.83 54.89 324.86 50.92 319.96 50.92H292.15C287.25 50.92 283.28 54.89 283.28 59.79V71.42C283.28 76.32 287.25 80.29 292.15 80.29Z" fill="#263238"/>
<path opacity="0.2" d="M292.15 80.29H319.96C324.86 80.29 328.83 76.32 328.83 71.42V59.79C328.83 54.89 324.86 50.92 319.96 50.92H292.15C287.25 50.92 283.28 54.89 283.28 59.79V71.42C283.28 76.32 287.25 80.29 292.15 80.29Z" fill="white"/>
<path opacity="0.3" d="M384.75 121.25L388.64 118.54C388.77 119.1 389.02 120.13 389.98 120.64C390.88 121.11 392.47 121.08 393.57 121.18L395.03 124.26C395.03 124.26 392.07 123.18 389.91 122.2C387.75 121.22 387.93 120.06 387.93 120.06L384.75 121.25Z" fill="black"/>
<path opacity="0.3" d="M385.99 105.6L387.59 108.85C386.41 110.26 382.55 114.49 382.55 114.49L385.99 105.6Z" fill="black"/>
<path opacity="0.2" d="M250.25 127.97C248.82 127.97 126.06 126.4 121.75 127.42C118.96 128.08 116.28 135.36 114.75 140.4C113.88 143.26 114.98 146.36 117.42 147.97C127.47 154.61 155.11 171.27 185.09 175.93C222.53 181.74 244.76 177.64 251.22 172.05C257.68 166.46 251.68 127.97 250.25 127.97Z" fill="white"/>
<path d="M284.55 85.76C284.77 86.09 289.24 105.71 289.24 105.71L284.61 120.63H265.27C265.27 120.63 276.38 93.63 278.49 90.15C280.58 86.7 284.55 85.76 284.55 85.76Z" fill="#407BFF"/>
<path d="M327.56 85.76C327.34 86.09 322.87 105.71 322.87 105.71L327.5 120.63H346.84C346.84 120.63 335.73 93.63 333.62 90.15C331.52 86.7 327.56 85.76 327.56 85.76Z" fill="#407BFF"/>
<path d="M328.09 85.76C323.75 85.47 302.29 82 284.55 85.76L284.62 120.63H331.21L328.09 85.76Z" fill="#407BFF"/>
<path d="M318.35 53.7C318.35 53.7 327.76 48.4 322.18 42.71C317.77 38.23 313.87 38.88 307.98 39.95C293.53 42.58 294.37 48.6 294.37 48.6L318.35 53.7Z" fill="#263238"/>
<path d="M299.95 84.02C299.95 84.02 300.72 78.48 297.48 68.87C297.48 68.86 297.98 68.61 297.98 68.6C297.53 67.26 297.06 66.02 296.63 64.94C296.62 64.91 296.62 64.9 296.62 64.9L310.29 72.55C310.11 75.67 311.49 81.64 312.27 84.15C312.27 84.15 314.15 88.68 308.04 89.14C303.57 89.48 299.95 84.02 299.95 84.02Z" fill="#B97964"/>
<path opacity="0.2" d="M310.7 76.91L302.97 75.52C303.77 77.87 306 80.6 311.34 80.6C311.33 80.6 310.69 77.96 310.7 76.91Z" fill="black"/>
<path d="M296.23 58.44C297.49 66.84 298.04 71.6 302.69 75.52C309.69 81.41 319.55 76.74 320.82 68.11C321.97 60.34 319.71 47.91 311.13 45.36C302.69 42.85 294.96 50.04 296.23 58.44Z" fill="#B97964"/>
<path d="M294.26 48.38C304.57 38.45 315.06 44.02 319.08 49.46L301.09 49.67C300.3 49.66 299.86 50.48 300.03 51.97C300.03 51.97 306.27 63.15 297.67 69.43C294.59 68.25 293.97 63.14 292.77 60.16C290.98 55.75 288.72 49.23 294.26 48.38Z" fill="#263238"/>
<path d="M293.52 65.78C294.39 67.89 296.15 69.4 297.9 70.09C300.53 71.12 301.23 68.28 300.75 65.64C300.32 63.26 299.37 60.41 296.6 60.51C293.88 60.6 292.52 63.36 293.52 65.78Z" fill="#B97964"/>
<path d="M307.57 59.66C307.65 60.52 308.17 61.18 308.73 61.12C309.3 61.06 309.69 60.32 309.62 59.45C309.54 58.59 309.02 57.93 308.46 57.99C307.89 58.05 307.5 58.8 307.57 59.66Z" fill="#263238"/>
<path d="M316.3 59.38C316.38 60.24 316.9 60.9 317.46 60.84C318.03 60.78 318.42 60.04 318.35 59.17C318.27 58.31 317.75 57.65 317.19 57.71C316.62 57.77 316.23 58.52 316.3 59.38Z" fill="#263238"/>
<path d="M314.22 59C314.22 59 317.33 63.05 318.37 64.72C317.26 65.91 315.15 65.59 315.15 65.59L314.22 59Z" fill="#A24E3F"/>
<path d="M306.06 55.93C306.2 55.97 306.35 55.94 306.46 55.84C307.79 54.6 309.25 54.93 309.26 54.93C309.48 54.98 309.7 54.85 309.75 54.63C309.8 54.41 309.67 54.19 309.45 54.14C309.37 54.12 307.55 53.7 305.9 55.24C305.74 55.39 305.73 55.65 305.88 55.81C305.93 55.87 305.99 55.91 306.06 55.93Z" fill="#263238"/>
<path d="M312.55 68.6C311.15 68.73 310 68.13 308.82 67.18" stroke="#263238" stroke-width="0.75" stroke-miterlimit="10" stroke-linecap="round" stroke-linejoin="round"/>
<path opacity="0.2" d="M295.24 63.27C295.54 62.74 296.21 62.49 296.82 62.58C297.42 62.67 297.95 63.05 298.35 63.51C298.83 64.06 299.17 64.74 299.32 65.46" stroke="black" stroke-width="0.5" stroke-miterlimit="10" stroke-linecap="round" stroke-linejoin="round"/>
<path d="M320.44 55.25C320.51 55.23 320.58 55.18 320.63 55.12C320.77 54.95 320.75 54.69 320.58 54.55C318.85 53.12 317.07 53.69 316.99 53.7C316.78 53.77 316.66 54 316.72 54.21C316.79 54.42 317.01 54.54 317.22 54.47C317.29 54.44 318.67 54.03 320.06 55.17C320.17 55.27 320.31 55.29 320.44 55.25Z" fill="#263238"/>
<g opacity="0.2">
<path d="M308.15 65.23C307.41 66.04 307.01 67.15 307.07 68.25C307.07 68.25 306.57 67.38 306.79 66.47C307.02 65.54 308.15 65.23 308.15 65.23Z" fill="black"/>
</g>
<path d="M311 79.59L315.87 83.98L307.74 93.84L295.99 83.93L299.47 78.81L306.81 84.95L311 79.59Z" fill="#407BFF"/>
<path opacity="0.8" d="M311 79.59L315.87 83.98L307.74 93.84L295.99 83.93L299.47 78.81L306.81 84.95L311 79.59Z" fill="white"/>
<path d="M282.16 122.4C282.16 108.34 293.56 96.94 307.62 96.94C321.68 96.94 333.08 108.34 333.08 122.4" stroke="#263238" stroke-width="4" stroke-miterlimit="10"/>
<path d="M288.31 99.43C288.31 99.43 285.17 97.34 284.69 100.1C284.69 100.1 281.36 100.1 281.45 103.14C281.45 103.14 278.79 103.52 279.93 106.57C279.93 106.57 277.84 107.14 279.26 109.81C280.69 112.47 283.45 115.04 284.87 114.76C286.3 114.47 286.3 112.57 286.3 112.57C286.3 112.57 290.11 113.62 289.34 110.48C289.34 110.48 290.48 111.43 291.24 109.91C292 108.39 291.24 107.63 291.24 107.63C291.24 107.63 292.19 108.6 292.86 106.74C293.53 104.88 289.93 100.76 288.31 99.43Z" fill="#B97964"/>
<path d="M323.72 97.7C323.72 97.7 326.86 95.61 327.34 98.37C327.34 98.37 330.67 98.37 330.58 101.41C330.58 101.41 333.24 101.79 332.1 104.84C332.1 104.84 334.19 105.41 332.77 108.08C331.34 110.74 328.58 113.31 327.16 113.03C325.73 112.74 325.73 110.84 325.73 110.84C325.73 110.84 321.92 111.89 322.69 108.75C322.69 108.75 321.55 109.7 320.79 108.18C320.03 106.66 320.79 105.9 320.79 105.9C320.79 105.9 319.84 106.87 319.17 105.01C318.49 103.12 322.11 99.03 323.72 97.7Z" fill="#B97964"/>
<path d="M378.01 114.6L242.91 115.53L119.35 114.49L115.16 124.17L242.91 124.41L382.2 124.17L378.01 114.6Z" fill="#263238"/>
<path d="M231.96 185.7L233.74 194.91C245.47 196.87 257.01 197 268.32 194.91L269.85 185.7C258.69 186.07 245.83 185.81 231.96 185.7Z" fill="#263238"/>
<path d="M262.93 46.68C262.74 45.32 262.55 43.85 262.35 42.81C262.19 41.97 261.45 41.37 260.6 41.37H236.32C235.47 41.37 234.73 41.97 234.57 42.81C234.37 43.86 234.18 45.32 233.99 46.68C233.71 48.63 235.22 50.38 237.19 50.38H245.1H251.83H259.74C261.7 50.38 263.21 48.63 262.93 46.68Z" fill="#263238"/>
<path d="M250.01 36.97H246.89V42.45H250.01V36.97Z" fill="#263238"/>
<path opacity="0.3" d="M134.47 79.52C134.45 79.57 233.52 36.97 233.52 36.97H260.92L126.99 96.86L134.47 79.52Z" fill="white"/>
<path opacity="0.3" d="M123.13 105.6L287.31 36.97H326.24L141.52 114.82L119.29 114.49L123.13 105.6Z" fill="white"/>
</g>
<mask id="mask0_110_488" style="mask-type:alpha" maskUnits="userSpaceOnUse" x="249" y="16" width="166" height="114">
<path d="M249 130V30.5L345.5 16L414.5 130H249Z" fill="#D9D9D9"/>
</mask>
<g mask="url(#mask0_110_488)">
<path opacity="0.5" d="M351.51 53.73C347.05 43.4 337.13 36.82 326.24 36.97H170.79C159.9 36.82 149.97 43.41 145.51 53.73L119.07 115.01L242.73 116.36C242.73 116.43 242.73 116.49 242.73 116.49L248.51 116.43L254.29 116.49C254.29 116.49 254.29 116.44 254.29 116.36L377.95 115.01L351.51 53.73Z" fill="#071E57"/>
</g>
<path d="M462.833 8.5C462.833 9.97276 464.027 11.1667 465.5 11.1667C466.973 11.1667 468.167 9.97276 468.167 8.5C468.167 7.02724 466.973 5.83333 465.5 5.83333C464.027 5.83333 462.833 7.02724 462.833 8.5ZM344.667 51.9711L465.667 8.97113L465.333 8.02887L344.333 51.0289L344.667 51.9711Z" fill="#0E338B"/>
<path d="M249 0L249 319" stroke="#0E338B" stroke-width="3" stroke-dasharray="8 8"/>
<defs>
<clipPath id="clip0_110_488">
<rect width="353.6" height="291.08" fill="white" transform="translate(72 28)"/>
</clipPath>
</defs>
</svg>
